<?xml version="1.0" standalone="no"?><!DOCTYPE svg PUBLIC "-//W3C//DTD SVG 1.1//EN" "http://www.w3.org/Graphics/SVG/1.1/DTD/svg11.dtd"><svg t="1555829670611" class="icon" style="" viewBox="0 0 1024 1024" version="1.1" xmlns="http://www.w3.org/2000/svg" p-id="1978" xmlns:xlink="http://www.w3.org/1999/xlink" width="200" height="200"><defs><style type="text/css"></style></defs><path d="M952.7 906.6L727.8 681.8c26.2-30.6 47.1-65 62.3-102.4 18.3-45 27.5-92.6 27.5-141.4s-9.3-96.4-27.5-141.4c-18.9-46.6-46.7-88.5-82.6-124.4-35.9-35.9-77.8-63.6-124.4-82.6-45.1-18.2-92.7-27.5-141.5-27.5s-96.4 9.3-141.5 27.5c-46.7 18.9-88.5 46.7-124.4 82.6-35.9 35.9-63.7 77.7-82.7 124.3-18.3 45-27.5 92.6-27.5 141.4 0 48.8 9.3 96.4 27.5 141.4 18.9 46.6 46.7 88.5 82.6 124.4 42 42 91.7 72.6 147.7 91.1 38 12.6 78.3 18.9 118.5 18.9 16.2 0 32.5-1 48.6-3.1 22.1-2.9 44.1-7.8 65.2-14.5 15.8-5 24.5-21.9 19.5-37.7-5-15.8-21.9-24.5-37.7-19.5-17.8 5.7-36.3 9.7-54.8 12.2-47 6.1-95.6 1.5-140.5-13.3-47-15.5-88.8-41.3-124.1-76.6-59.7-59.7-92.6-139-92.6-223.4s32.9-163.7 92.6-223.4c59.7-59.7 139.1-92.5 223.5-92.5s163.8 32.9 223.5 92.5c59.7 59.7 92.6 139 92.6 223.4S724.7 601.5 665 661.2c-0.8 0.8-1.6 1.7-2.2 2.5-9.7 11.8-9 29.5 2 40.5l245.1 244.9c11.8 11.7 31 11.7 42.7 0 11.8-11.6 11.8-30.8 0.1-42.5z" p-id="1979" fill="#807fe2"></path></svg>